<svg width="63" height="62" viewBox="0 0 63 62" fill="none" xmlns="http://www.w3.org/2000/svg">
<path d="M30.812 0.557139C30.3835 1.44642 29.5692 2.20713 28.7978 2.46427C28.5728 2.52856 28.3906 2.65713 28.3906 2.73213C28.3906 2.80713 28.6478 3.02141 28.9692 3.20355C29.837 3.70712 30.3942 4.26426 30.7799 5.01426C30.9728 5.38925 31.1763 5.69997 31.2299 5.69997C31.2942 5.69997 31.487 5.38925 31.6799 5.01426C32.0656 4.26426 32.6227 3.70712 33.4906 3.20355C33.812 3.02141 34.0692 2.80713 34.0692 2.73213C34.0692 2.65713 33.887 2.52856 33.6727 2.46427C32.8906 2.20713 32.0763 1.44642 31.6477 0.557139C31.5085 0.257141 31.3156 -5.28991e-07 31.2299 -5.28991e-07C31.1442 -5.28991e-07 30.9513 0.257141 30.812 0.557139Z" fill="white"/>
<path d="M21.257 9.91192C21.0106 10.0298 20.3356 10.5548 19.757 11.1012C18.182 12.5583 18.0535 12.6012 17.0035 11.9048C16.3392 11.4655 15.9106 11.3476 15.6963 11.5298C15.3535 11.8191 15.5356 12.3548 16.4678 13.8226C17.6999 15.7405 18.9535 17.1762 20.3035 18.2154C21.332 19.019 21.8142 19.3083 23.6249 20.2619C26.5177 21.7833 27.7391 22.6404 28.9606 24.044C29.5605 24.7297 30.4284 26.2618 30.4284 26.6154C30.4284 26.7118 30.2463 26.4333 30.0213 25.9833C28.757 23.4654 26.5177 22.1369 21.6963 21.0547C18.932 20.4333 17.1428 19.9833 15.9321 19.6083C14.1642 19.0512 13.4035 18.9976 13.2428 19.4154C13.1464 19.6726 13.4785 20.2833 13.9714 20.7119C14.2071 20.9261 14.3142 21.0654 14.1963 21.0226C13.5749 20.7869 12.1821 20.6154 11.3035 20.6583C10.4892 20.6904 10.2535 20.744 9.76066 21.0119C9.03209 21.419 8.54995 21.9761 8.03567 23.0476C7.19996 24.8047 6.91068 27.1404 7.0821 30.8154C7.18925 33.0011 7.29639 33.6439 7.54281 33.7404C7.81067 33.8475 7.9071 33.5796 8.03567 32.4225C8.23924 30.3975 8.67852 29.3475 9.80352 28.1475C10.9821 26.894 12.8464 25.9404 14.5928 25.7261C15.2999 25.6404 15.8892 25.8547 16.1142 26.3047C16.1999 26.4547 16.4356 27.2368 16.6392 28.0297C17.0678 29.6904 17.4213 30.5154 18.0106 31.1689C18.5142 31.7475 18.9213 31.9297 19.5642 31.8547C20.1642 31.7904 20.5713 31.4261 21.3535 30.2797C22.5963 28.4475 23.357 27.6761 24.5356 27.0547C24.9534 26.8297 25.1677 26.7975 26.1427 26.7975C27.2248 26.7975 27.2998 26.8083 27.9427 27.1618C28.3177 27.3654 28.7141 27.644 28.8213 27.7832C29.0034 28.019 29.0034 28.0511 28.7356 28.8547C28.5213 29.5297 28.4677 29.9154 28.457 30.8154C28.4463 31.8439 28.4677 31.9939 28.7463 32.5511C28.907 32.8832 29.2605 33.4082 29.5284 33.6975C30.1713 34.4154 30.2998 34.9082 30.4391 37.3511C30.5248 38.9903 30.5141 39.7189 30.3748 41.5832C30.2677 42.8689 30.1605 46.0724 30.107 49.0831C30.0534 51.9653 30.0105 54.3545 30.0105 54.3867C29.9998 54.4188 29.8391 54.151 29.6463 53.7974C29.2284 53.0367 28.5213 51.8903 27.9641 51.0653C27.0748 49.7474 27.0534 49.6938 27.0856 47.851C27.1284 45.2689 26.8498 44.5189 25.2641 42.9117C24.1177 41.7439 24.0963 41.6582 24.4177 39.8582C24.932 36.9011 24.5356 35.2832 22.8427 33.6332C21.6749 32.4761 21.3535 32.4761 21.107 33.6439C20.6463 35.8511 20.4427 40.0618 20.7213 41.6367C21.0642 43.5974 21.9427 45.7189 23.6249 48.6224C24.6749 50.4331 25.6177 51.6974 27.0641 53.2295C28.3606 54.601 28.8534 55.201 29.5391 56.2295C29.9998 56.9259 30.0105 56.9581 29.9784 57.7081L29.9463 58.4688L29.2498 57.8474C28.8641 57.5045 27.7284 56.5724 26.732 55.7688C23.1749 52.9188 20.3142 49.6617 17.0356 44.7439C15.8356 42.9439 14.2285 40.8546 13.2321 39.826C10.8749 37.3725 7.44639 35.2725 3.42855 33.8261C2.45356 33.4725 1.33928 33.0654 0.953566 32.9154C0.246427 32.6475 0 32.6796 0 33.0225C0 33.1832 1.89642 36.0225 2.58213 36.8796C3.58927 38.1439 4.27498 38.626 5.83925 39.1725C6.99639 39.5796 8.45352 40.351 9.01066 40.8546C9.53566 41.3367 9.88923 41.9475 10.3392 43.1689C11.1321 45.3439 11.6785 46.3831 12.5356 47.3367C13.1999 48.076 13.9714 48.526 15.5249 49.0831C17.9249 49.9403 18.3856 50.2831 19.1892 51.8153C20.3356 54.0224 23.1106 56.6259 25.4999 57.7509C26.132 58.0402 29.6677 59.2081 29.9463 59.2081C29.9784 59.2081 29.9998 59.4652 29.9998 59.7759C29.9998 60.3224 30.0213 60.3652 30.6213 60.9545L31.2427 61.5652L31.8534 60.9438C32.4427 60.3545 32.4641 60.3009 32.4641 59.7652C32.4641 59.4545 32.4855 59.2081 32.5177 59.2081C32.7855 59.2081 36.3212 58.0509 36.9319 57.7617C39.4391 56.5938 42.0855 54.0974 43.2962 51.7724C44.0676 50.3153 44.6355 49.8867 46.9176 49.0938C48.4283 48.5688 49.0176 48.2367 49.7676 47.476C50.7104 46.5117 51.2783 45.4939 52.1247 43.1689C52.5747 41.9475 52.9283 41.3367 53.4426 40.8653C53.9997 40.3617 55.4783 39.5796 56.6247 39.1725C58.189 38.626 58.8747 38.1439 59.8818 36.8796C60.5461 36.0546 62.4639 33.1725 62.4639 33.0118C62.4639 32.6796 62.2175 32.6475 61.5104 32.9154C61.1247 33.0654 59.9354 33.5046 58.8747 33.8904C55.3175 35.1761 52.0069 37.1368 49.7676 39.301C48.5462 40.4689 46.8962 42.5475 45.4283 44.7439C42.1176 49.7046 39.3105 52.9081 35.7319 55.7688C34.7355 56.5724 33.5998 57.5045 33.2141 57.8474L32.5177 58.4688L32.4855 57.7081C32.4534 56.9795 32.4748 56.9152 32.8498 56.3367C33.5462 55.276 34.157 54.5367 35.3569 53.2617C36.8248 51.7188 37.7676 50.4545 38.8391 48.6117C40.5748 45.6117 41.5283 43.2653 41.7855 41.3367C42.064 39.2903 41.6033 33.5904 41.0998 32.9046C40.8748 32.5939 40.4676 32.7868 39.6212 33.6332C37.9284 35.2832 37.5319 36.9011 38.0462 39.8582C38.3676 41.6582 38.3462 41.7225 37.1784 42.9224C35.6462 44.4867 35.2819 45.451 35.3891 47.6367C35.4855 49.5331 35.4962 49.501 33.7498 52.2438C33.3212 52.9188 32.8498 53.7117 32.7212 54.0117C32.582 54.301 32.4641 54.526 32.4534 54.4938C32.4534 54.4617 32.4105 52.0295 32.357 49.0831C32.3034 46.0189 32.1855 42.7832 32.0891 41.5296C31.9391 39.7082 31.9391 38.9903 32.0248 37.3511C32.1748 34.8975 32.2927 34.4154 32.9355 33.6975C33.2034 33.4082 33.557 32.8832 33.7177 32.5511C33.9962 31.9939 34.0177 31.8439 34.007 30.8154C33.9962 29.9154 33.9427 29.5297 33.7284 28.8547C33.4605 28.0511 33.4605 28.019 33.6427 27.7832C33.7498 27.644 34.1462 27.3654 34.5212 27.1725C35.1212 26.8511 35.3141 26.7975 36.1927 26.7654C37.1676 26.7225 37.2105 26.7225 38.0141 27.119C39.0319 27.6225 39.7712 28.3511 40.8641 29.9261C41.9141 31.4475 42.2676 31.7904 42.8998 31.8547C43.5426 31.9297 43.9498 31.7475 44.4533 31.1689C45.0426 30.5047 45.3855 29.7118 45.8462 27.9654C46.0605 27.1297 46.3283 26.3261 46.4247 26.1761C46.714 25.7261 47.3033 25.6083 48.2997 25.8011C49.8533 26.1118 51.214 26.7975 52.3497 27.8475C53.6461 29.0475 54.2033 30.2797 54.4283 32.4225C54.5568 33.5796 54.6533 33.8475 54.9211 33.7404C55.1675 33.6439 55.2747 33.0011 55.3818 30.7618C55.564 27.1618 55.2747 24.8154 54.4283 23.0476C53.914 21.9761 53.4318 21.419 52.7033 21.0119C52.2104 20.744 51.9747 20.6904 51.1604 20.6583C50.2819 20.6154 48.9104 20.7869 48.2676 21.0119C48.139 21.0654 48.214 20.9583 48.4497 20.7547C48.8462 20.4226 49.2854 19.8011 49.2854 19.5869C49.2854 19.3512 48.9319 19.1369 48.5354 19.1369C48.3104 19.1369 47.7319 19.2547 47.239 19.4047C45.3426 19.9726 43.5748 20.4226 41.4105 20.9047C37.8319 21.7083 36.0105 22.3833 34.5855 23.4333C33.6855 24.1083 32.7962 25.1797 32.357 26.1118C32.1855 26.4868 32.0462 26.7225 32.0355 26.6261C32.0355 26.294 32.8927 24.7618 33.4498 24.1083C34.7141 22.6511 35.8927 21.8047 38.7319 20.3261C42.4176 18.4083 44.2069 16.7369 46.3176 13.2976C46.9497 12.2583 47.0676 11.7762 46.7676 11.5298C46.5533 11.3476 46.1676 11.4655 45.3426 11.9691C44.9569 12.194 44.5605 12.3869 44.4747 12.3869C44.1855 12.3869 43.7033 12.0333 42.664 11.0583C41.6141 10.0726 41.0141 9.71906 40.4033 9.70835C39.4283 9.70835 38.6891 10.2226 37.5962 11.6476C36.3641 13.2655 36.1069 13.244 34.6177 11.3476C33.4498 9.85835 32.3462 9.38692 31.4998 10.0298C31.2534 10.2226 31.232 10.2226 30.9641 10.0405C30.0213 9.37621 29.0998 9.79406 27.6963 11.5298C26.8177 12.6119 26.6034 12.8048 26.2499 12.8155C25.8534 12.8155 25.5749 12.5905 24.8677 11.6476C23.507 9.85835 22.4677 9.36549 21.257 9.91192Z" fill="white"/>
</svg>
