<svg width="775" height="445" viewBox="0 0 775 445" fill="none" xmlns="http://www.w3.org/2000/svg">
<path d="M887.453 441.817C888.86 441.817 890 442.957 890 444.363C890 445.77 888.86 446.91 887.453 446.91H483.834L835.606 493.728C836.86 493.895 837.797 494.965 837.797 496.231C837.797 497.757 836.453 498.934 834.94 498.733L483.834 452.003L794.561 535.369C795.944 535.74 796.775 537.151 796.427 538.54C796.071 539.963 794.618 540.819 793.201 540.439L482.561 457.096L758.068 572.101C759.253 572.596 759.899 573.882 759.587 575.128C759.202 576.669 757.537 577.507 756.07 576.897L480.014 462.189L726.187 604.843C727.331 605.506 727.678 606.996 726.945 608.096C726.274 609.102 724.936 609.413 723.89 608.807L477.468 466.009L696.596 634.763C697.878 635.75 698 637.637 696.856 638.781C695.905 639.732 694.395 639.83 693.329 639.01L474.921 471.102L667.787 663.967C668.791 664.972 668.626 666.644 667.444 667.432C666.551 668.027 665.362 667.909 664.604 667.15L471.102 473.648L638.958 693.249C639.762 694.302 639.51 695.816 638.408 696.55C637.404 697.22 636.053 696.997 635.317 696.04L467.282 477.468L608.819 723.893C609.419 724.939 609.106 726.271 608.103 726.94C607.001 727.675 605.506 727.324 604.847 726.175L463.462 480.014L576.911 756.073C577.514 757.54 576.674 759.201 575.135 759.586C573.886 759.898 572.596 759.249 572.102 758.06L457.096 481.288L540.441 793.202C540.82 794.619 539.964 796.071 538.541 796.427C537.151 796.775 535.74 795.944 535.368 794.56L452.003 483.834L498.733 834.94C498.934 836.453 497.757 837.797 496.231 837.797C494.965 837.797 493.895 836.86 493.728 835.606L446.91 483.834V887.454C446.91 888.86 445.77 890 444.363 890C442.957 890 441.817 888.86 441.817 887.454V483.834L396.265 835.596C396.102 836.855 395.03 837.797 393.761 837.797C392.237 837.797 391.06 836.458 391.256 834.947L436.724 483.834L354.739 794.116C354.303 795.766 352.658 796.792 350.984 796.457C349.151 796.091 348.012 794.25 348.501 792.446L432.904 481.288L317.897 758.064C317.403 759.251 316.116 759.898 314.87 759.587C313.33 759.202 312.493 757.538 313.102 756.072L427.811 480.014L285.157 726.187C284.495 727.331 283.004 727.678 281.905 726.945C280.898 726.274 280.587 724.936 281.193 723.89L423.991 477.468L256.056 695.91C255.239 696.972 253.784 697.307 252.585 696.707C251.013 695.922 250.546 693.899 251.613 692.503L418.898 473.648L225.394 667.153C224.637 667.91 223.45 668.028 222.559 667.434C221.377 666.646 221.214 664.972 222.222 663.971L416.352 471.102L196.754 638.955C195.7 639.761 194.184 639.509 193.447 638.404C192.779 637.401 192.999 636.052 193.952 635.314L412.532 466.009L166.11 608.807C165.064 609.413 163.726 609.102 163.056 608.096C162.322 606.996 162.669 605.506 163.813 604.843L409.986 462.189L133.588 577.039C132.212 577.611 130.628 577.021 129.961 575.688C129.225 574.215 129.893 572.426 131.415 571.797L408.712 457.096L97.693 540.54C96.4129 540.884 95.0679 540.279 94.4752 539.094C93.6859 537.515 94.5426 535.609 96.2474 535.152L406.166 452.003L54.512 498.806C53.1969 498.981 51.96 498.141 51.6382 496.853C51.2607 495.343 52.2819 493.841 53.8251 493.636L406.166 446.91H2.54654C1.14012 446.91 0 445.77 0 444.363C0 442.957 1.14012 441.817 2.54654 441.817H406.166L53.8252 395.091C52.282 394.886 51.2607 393.384 51.6382 391.873C51.96 390.586 53.1969 389.746 54.512 389.921L406.166 436.724L96.6594 354.944C94.6867 354.423 93.6153 352.292 94.3731 350.398C95.0123 348.8 96.7453 347.932 98.4075 348.378L408.712 431.631L131.424 318.195C129.899 317.571 129.227 315.781 129.964 314.308C130.629 312.977 132.21 312.388 133.583 312.959L409.986 427.811L163.813 285.157C162.669 284.495 162.322 283.004 163.056 281.905C163.726 280.898 165.064 280.587 166.11 281.193L412.532 423.992L193.952 254.687C192.999 253.948 192.779 252.599 193.447 251.596C194.184 250.492 195.7 250.239 196.754 251.045L416.352 418.898L222.191 225.998C221.132 224.946 221.129 223.234 222.185 222.179C223.238 221.126 224.945 221.126 225.998 222.179L418.898 415.079L251.623 197.494C250.551 196.101 251.017 194.077 252.588 193.291C253.785 192.693 255.238 193.026 256.054 194.087L423.991 412.532L281.193 166.11C280.587 165.064 280.898 163.726 281.905 163.056C283.004 162.322 284.495 162.67 285.157 163.813L427.811 409.986L312.961 133.588C312.389 132.212 312.979 130.628 314.312 129.961C315.786 129.225 317.574 129.893 318.204 131.415L432.904 408.713L348.501 97.5543C348.012 95.7505 349.151 93.9094 350.984 93.5429C352.658 93.2081 354.303 94.2339 354.739 95.8842L436.724 406.166L391.185 54.5045C391.015 53.1925 391.855 51.9612 393.138 51.6404C394.651 51.2621 396.156 52.2881 396.356 53.8349L441.817 404.893V2.54652C441.817 1.14012 442.957 0 444.363 0C445.77 0 446.91 1.14011 446.91 2.5465V404.893L493.635 53.8244C493.84 52.2813 495.343 51.2606 496.853 51.6381C498.14 51.96 498.981 53.1972 498.806 54.5126L452.003 406.166L535.152 96.2474C535.609 94.5427 537.515 93.6859 539.094 94.4752C540.279 95.068 540.884 96.4129 540.54 97.693L457.096 408.713L571.794 131.42C572.425 129.895 574.217 129.226 575.693 129.964C577.024 130.629 577.617 132.21 577.051 133.587L463.462 409.986L604.847 163.825C605.506 162.677 607.001 162.326 608.103 163.061C609.106 163.729 609.419 165.061 608.819 166.107L467.282 412.532L635.319 193.958C636.053 193.002 637.402 192.78 638.405 193.448C639.508 194.183 639.758 195.698 638.95 196.749L471.102 415.079L663.964 222.216C664.97 221.21 666.645 221.376 667.433 222.559C668.028 223.451 667.912 224.638 667.157 225.398L474.921 418.898L692.506 251.623C693.899 250.552 695.923 251.017 696.709 252.588C697.307 253.785 696.974 255.239 695.913 256.054L477.468 423.992L723.89 281.193C724.936 280.587 726.274 280.898 726.945 281.905C727.678 283.004 727.331 284.495 726.187 285.157L480.014 427.811L756.075 313.101C757.539 312.493 759.201 313.329 759.586 314.867C759.898 316.115 759.248 317.402 758.06 317.893L482.561 431.631L791.592 348.382C793.254 347.934 794.988 348.801 795.628 350.399C796.385 352.293 795.314 354.422 793.342 354.943L483.834 436.724L834.947 391.256C836.458 391.06 837.797 392.237 837.797 393.761C837.797 395.03 836.855 396.102 835.596 396.265L483.834 441.817H887.453Z" fill="url(#paint0_linear_2029_100)" fill-opacity="0.5"/>
<defs>
<linearGradient id="paint0_linear_2029_100" x1="445" y1="0" x2="445" y2="589" gradientUnits="userSpaceOnUse">
<stop stop-color="white"/>
<stop offset="1" stop-color="#645A56"/>
</linearGradient>
</defs>
</svg>
