<svg width="24" height="24" viewBox="0 0 24 24" fill="none" xmlns="http://www.w3.org/2000/svg">
<path d="M11.583 22.9422C11.6073 22.9188 11.6371 22.8887 11.6709 22.8494C11.7827 22.7196 11.9226 22.5243 12.084 22.2742C12.4054 21.776 12.7946 21.0853 13.1855 20.325C14.7835 17.2179 17.0921 14.9136 20.6631 12.8416L20.665 12.8406C21.3097 12.4753 21.8877 12.079 22.3008 11.7401C22.5078 11.5702 22.6684 11.4195 22.7744 11.2977C22.8276 11.2365 22.8616 11.1875 22.8818 11.1522C22.887 11.1432 22.8901 11.1359 22.8926 11.1307C22.886 11.1161 22.8693 11.0855 22.8281 11.0379C22.7635 10.9632 22.6617 10.8745 22.5254 10.7811C22.2534 10.5947 21.8728 10.4081 21.459 10.284L21.4531 10.282C18.1891 9.20894 14.8225 6.05392 13.0518 2.3797L13.0498 2.37677C12.7723 1.77896 12.4428 1.22603 12.1436 0.826965C11.9936 0.626993 11.8558 0.472133 11.7412 0.369934C11.6839 0.318875 11.6371 0.285591 11.6025 0.266418C11.5655 0.245877 11.5579 0.249783 11.5732 0.249817C11.5888 0.249817 11.5812 0.245799 11.5439 0.266418C11.5094 0.285613 11.4634 0.319007 11.4062 0.369934C11.2916 0.472112 11.154 0.626839 11.0039 0.826965C10.7046 1.22605 10.3743 1.77886 10.0967 2.37677L10.0957 2.3797L9.9248 2.72247C8.17295 6.13505 5.06665 9.04882 2.04102 10.1756L1.73828 10.282L1.72852 10.285L1.41113 10.3895C1.1046 10.503 0.832514 10.6424 0.625 10.782C0.486334 10.8754 0.383333 10.9634 0.318359 11.0379C0.276723 11.0856 0.259416 11.1163 0.25293 11.1307C0.255371 11.136 0.259386 11.1429 0.264648 11.1522C0.284864 11.1875 0.31983 11.2365 0.373047 11.2977C0.47909 11.4195 0.639624 11.5702 0.84668 11.7401C1.25973 12.079 1.83686 12.4754 2.48145 12.8406L2.4834 12.8416C6.05435 14.9136 8.36395 17.2179 9.96191 20.325C10.3518 21.0831 10.7511 21.7737 11.0781 22.2723C11.2421 22.5223 11.3848 22.719 11.4961 22.8504C11.529 22.8892 11.5593 22.9184 11.583 22.9422Z" fill="url(#paint0_linear_2001_83)" stroke="#F2F2F2" stroke-width="0.5"/>
<defs>
<linearGradient id="paint0_linear_2001_83" x1="11.5734" y1="1.52588e-05" x2="11.5734" y2="23.2342" gradientUnits="userSpaceOnUse">
<stop stop-color="#FAFAFA"/>
<stop offset="1" stop-color="#E2E1DB"/>
</linearGradient>
</defs>
</svg>
