<svg width="784" height="588" viewBox="0 0 784 588" fill="none" xmlns="http://www.w3.org/2000/svg">
<path d="M386.369 6.98631C380.994 18.1375 370.784 27.6765 361.11 30.9009C358.289 31.707 356.005 33.3193 356.005 34.2597C356.005 35.2002 359.23 37.8872 363.26 40.1712C374.143 46.4857 381.129 53.472 385.966 62.8766C388.384 67.579 390.937 71.4752 391.608 71.4752C392.414 71.4752 394.833 67.579 397.251 62.8766C402.088 53.472 409.074 46.4857 419.957 40.1712C423.987 37.8872 427.212 35.2002 427.212 34.2597C427.212 33.3193 424.928 31.707 422.241 30.9009C412.433 27.6765 402.222 18.1375 396.848 6.98631C395.101 3.22446 392.683 2.28882e-05 391.608 2.28882e-05C390.533 2.28882e-05 388.115 3.22446 386.369 6.98631Z" fill="#F9F9F9"/>
<path d="M266.554 124.29C263.464 125.768 255 132.351 247.745 139.203C227.995 157.475 226.383 158.012 213.216 149.279C204.886 143.771 199.512 142.293 196.825 144.577C192.526 148.204 194.81 154.922 206.499 173.328C221.949 197.377 237.668 215.38 254.597 228.412C267.494 238.489 273.54 242.116 296.246 254.074C332.521 273.152 347.837 283.9 363.153 301.5C370.677 310.098 381.559 329.311 381.559 333.744C381.559 334.953 379.275 331.46 376.454 325.818C360.6 294.245 332.521 277.585 272.062 264.016C237.4 256.223 214.963 250.581 199.781 245.878C177.613 238.892 168.074 238.22 166.059 243.46C164.85 246.684 169.015 254.342 175.195 259.716C178.15 262.403 179.494 264.15 178.016 263.613C170.224 260.657 152.758 258.507 141.741 259.045C131.53 259.448 128.575 260.12 122.394 263.478C113.259 268.584 107.213 275.57 100.764 289.005C90.2844 311.039 86.6569 340.328 88.8065 386.41C90.15 413.818 91.4936 421.879 94.5837 423.088C97.9425 424.432 99.1516 421.073 100.764 406.563C103.317 381.17 108.825 368.004 122.932 352.957C137.711 337.237 161.088 325.28 182.987 322.593C191.854 321.518 199.244 324.205 202.065 329.848C203.14 331.729 206.096 341.537 208.648 351.479C214.022 372.303 218.456 382.648 225.845 390.844C232.16 398.099 237.265 400.383 245.326 399.442C252.85 398.636 257.955 394.068 267.763 379.693C283.348 356.718 292.887 347.045 307.666 339.253C312.905 336.431 315.592 336.028 327.818 336.028C341.388 336.028 342.328 336.163 350.389 340.596C355.092 343.149 360.063 346.642 361.406 348.389C363.69 351.344 363.69 351.747 360.332 361.824C357.644 370.288 356.973 375.125 356.838 386.41C356.704 399.308 356.973 401.189 360.466 408.175C362.481 412.34 366.915 418.923 370.274 422.551C378.335 431.552 379.947 437.733 381.693 468.365C382.768 488.921 382.634 498.057 380.887 521.434C379.544 537.556 378.2 577.727 377.529 615.48C376.857 651.621 376.319 681.581 376.319 681.984C376.185 682.387 374.17 679.028 371.751 674.595C366.512 665.056 357.644 650.68 350.658 640.335C339.507 623.81 339.238 623.138 339.641 600.03C340.179 567.651 336.686 558.246 316.802 538.093C302.426 523.449 302.157 522.374 306.188 499.803C312.637 462.722 307.666 442.435 286.438 421.745C271.794 407.235 267.763 407.235 264.673 421.879C258.896 449.556 256.343 502.356 259.836 522.105C264.136 546.692 275.152 573.294 296.246 609.703C309.412 632.408 321.235 648.262 339.373 667.474C355.629 684.671 361.809 692.195 370.408 705.093C376.185 713.825 376.319 714.229 375.916 723.633L375.513 733.172L366.78 725.38C361.944 721.08 347.702 709.392 335.208 699.315C290.603 663.578 254.731 622.735 213.619 561.068C198.572 538.496 178.419 512.298 165.924 499.4C136.367 468.633 93.3745 442.301 42.9926 424.163C30.7666 419.729 16.794 414.624 11.9573 412.743C3.09009 409.384 0 409.787 0 414.087C0 416.102 23.7803 451.705 32.3788 462.453C45.0079 478.307 53.6064 484.353 73.2217 491.205C87.7317 496.31 106.004 505.983 112.99 512.298C119.573 518.344 124.007 526.002 129.649 541.318C139.592 568.591 146.443 581.623 157.192 593.581C165.521 602.851 175.195 608.494 194.676 615.48C224.771 626.228 230.548 630.527 240.624 649.74C255 677.416 289.797 710.064 319.757 724.171C327.684 727.798 372.02 742.442 375.513 742.442C375.916 742.442 376.185 745.667 376.185 749.563C376.185 756.415 376.454 756.952 383.977 764.342L391.77 772L399.428 764.207C406.817 756.818 407.086 756.146 407.086 749.429C407.086 745.533 407.355 742.442 407.758 742.442C411.116 742.442 455.453 727.932 463.111 724.305C494.549 709.661 527.734 678.357 542.916 649.202C552.589 630.93 559.71 625.556 588.326 615.614C607.27 609.031 614.659 604.866 624.064 595.327C635.887 583.236 643.008 570.472 653.621 541.318C659.264 526.002 663.698 518.344 670.147 512.432C677.133 506.118 695.674 496.31 710.049 491.205C729.665 484.353 738.263 478.307 750.892 462.453C759.222 452.108 783.271 415.968 783.271 413.952C783.271 409.787 780.181 409.384 771.314 412.743C766.477 414.624 751.564 420.132 738.263 424.969C693.658 441.091 652.144 465.678 624.064 492.817C608.748 507.461 588.058 533.525 569.652 561.068C528.137 623.272 492.937 663.444 448.063 699.315C435.569 709.392 421.327 721.08 416.491 725.38L407.758 733.172L407.355 723.633C406.952 714.497 407.22 713.691 411.923 706.436C420.655 693.135 428.314 683.865 443.361 667.877C461.767 648.531 473.59 632.677 487.025 609.568C508.79 571.95 520.748 542.527 523.972 518.344C527.465 492.682 521.688 421.207 515.373 412.609C512.552 408.713 507.447 411.131 496.833 421.745C475.605 442.435 470.634 462.722 477.083 499.803C481.114 522.374 480.845 523.18 466.201 538.228C446.988 557.843 442.42 569.935 443.764 597.342C444.973 621.123 445.107 620.72 423.208 655.114C417.834 663.578 411.923 673.52 410.31 677.282C408.564 680.909 407.086 683.731 406.952 683.328C406.952 682.925 406.414 652.427 405.742 615.48C405.071 577.055 403.593 536.481 402.384 520.762C400.503 497.922 400.503 488.921 401.578 468.365C403.458 437.598 404.936 431.552 412.997 422.551C416.356 418.923 420.79 412.34 422.805 408.175C426.298 401.189 426.567 399.308 426.433 386.41C426.298 375.125 425.626 370.288 422.939 361.824C419.581 351.747 419.581 351.344 421.865 348.389C423.208 346.642 428.179 343.149 432.881 340.731C440.405 336.7 442.823 336.028 453.84 335.625C466.066 335.088 466.604 335.088 476.68 340.059C489.444 346.373 498.714 355.509 512.418 375.259C525.584 394.337 530.018 398.636 537.945 399.442C546.006 400.383 551.111 398.099 557.426 390.844C564.815 382.514 569.114 372.572 574.891 350.673C577.578 340.193 580.937 330.117 582.146 328.236C585.774 322.593 593.163 321.115 605.658 323.534C625.139 327.43 642.202 336.028 656.443 349.195C672.699 364.242 679.686 379.693 682.507 406.563C684.119 421.073 685.328 424.432 688.687 423.088C691.777 421.879 693.121 413.818 694.464 385.738C696.748 340.596 693.121 311.173 682.507 289.005C676.058 275.57 670.012 268.584 660.876 263.478C654.696 260.12 651.741 259.448 641.53 259.045C630.513 258.507 613.316 260.657 605.255 263.478C603.643 264.15 604.583 262.807 607.539 260.254C612.51 256.089 618.018 248.297 618.018 245.609C618.018 242.654 613.585 239.967 608.614 239.967C605.792 239.967 598.537 241.445 592.357 243.326C568.577 250.446 546.409 256.089 519.27 262.135C474.396 272.211 451.556 280.675 433.688 293.842C422.402 302.306 411.251 315.741 405.742 327.43C403.593 332.132 401.846 335.088 401.712 333.879C401.712 329.714 412.46 310.501 419.446 302.306C435.3 284.034 450.078 273.42 485.682 254.88C531.899 230.831 554.336 209.872 580.803 166.745C588.73 153.713 590.207 147.667 586.446 144.577C583.759 142.293 578.922 143.771 568.577 150.085C563.74 152.907 558.769 155.325 557.694 155.325C554.067 155.325 548.021 150.891 534.989 138.665C521.822 126.305 514.299 121.872 506.641 121.737C494.415 121.737 485.144 128.186 471.44 146.055C455.99 166.342 452.766 166.073 434.091 142.293C419.446 123.618 405.608 117.707 394.994 125.768C391.904 128.186 391.635 128.186 388.277 125.902C376.454 117.572 364.899 122.812 347.299 144.577C336.283 158.146 333.595 160.565 329.162 160.699C324.191 160.699 320.698 157.878 311.831 146.055C294.768 123.618 281.736 117.438 266.554 124.29Z" fill="#F9F9F9"/>
</svg>
