<svg width="1512" height="841" viewBox="0 0 1512 841" fill="none" xmlns="http://www.w3.org/2000/svg">
<g style="mix-blend-mode:soft-light">
<path d="M1948.02 420.394C1948.02 192.511 1892.26 7.56348 1823.55 7.56348L1822.75 7.57227C1793.51 8.18743 1766.65 42.3017 1745.49 98.917C1748.67 107.601 1751.71 116.756 1754.6 126.34C1777.39 201.948 1791.39 305.925 1791.39 420.394V833.225H1948.02V420.394ZM-311.771 7.57227C-379.573 8.99862 -434.567 190.521 -435.426 415.061L-435.437 420.394V833.225H-278.805V420.394C-278.805 305.925 -264.809 201.948 -242.013 126.34C-239.123 116.755 -236.083 107.599 -232.901 98.9141C-254.257 41.7811 -281.414 7.56348 -310.967 7.56348L-311.771 7.57227ZM-228.87 110.18C-254.466 184.768 -270.766 293.623 -271.23 415.061L-271.241 420.394V833.225H-186.497V420.394C-186.497 296.812 -202.9 185.858 -228.87 110.18ZM-147.576 7.57227C-176.817 8.18743 -203.675 42.3017 -224.837 98.917C-221.656 107.601 -218.615 116.756 -215.726 126.34C-192.93 201.948 -178.934 305.925 -178.934 420.394V833.225H-114.613V420.394C-114.613 305.925 -100.617 201.948 -77.8213 126.34C-74.9309 116.753 -71.89 107.596 -68.708 98.9092C-90.0634 41.7792 -117.22 7.56348 -146.771 7.56348L-147.576 7.57227ZM-64.6768 110.174C-90.2736 184.762 -106.575 293.619 -107.039 415.061L-107.05 420.394V833.225H-22.3018V420.394C-22.3018 296.809 -38.7056 185.852 -64.6768 110.174ZM16.6152 7.57227C-12.6252 8.18741 -39.4821 42.2997 -60.6436 98.9121C-57.462 107.598 -54.4203 116.754 -51.5303 126.34C-28.7343 201.948 -14.7383 305.925 -14.7383 420.394V833.225H49.582V420.394C49.5821 305.925 63.578 201.948 86.374 126.34C89.2638 116.755 92.3041 107.599 95.4854 98.9141C74.1296 41.7811 46.9727 7.56348 17.4199 7.56348L16.6152 7.57227ZM99.5166 110.18C73.921 184.768 57.6206 293.623 57.1562 415.061L57.1455 420.394V833.225H141.89V420.394C141.89 296.812 125.487 185.858 99.5166 110.18ZM180.811 7.57227C151.569 8.18743 124.712 42.3017 103.55 98.917C106.731 107.601 109.772 116.756 112.661 126.34C135.457 201.948 149.453 305.925 149.453 420.394V833.225H213.773V420.394C213.773 305.925 227.769 201.948 250.565 126.34C253.456 116.753 256.497 107.596 259.679 98.9092C238.323 41.7792 211.167 7.56348 181.615 7.56348L180.811 7.57227ZM263.71 110.174C238.113 184.762 221.812 293.619 221.348 415.061L221.337 420.394V833.225H306.085V420.394C306.085 296.809 289.681 185.852 263.71 110.174ZM345.002 7.57227C315.761 8.18741 288.905 42.2997 267.743 98.9121C270.925 107.598 273.966 116.754 276.856 126.34C299.652 201.948 313.648 305.925 313.648 420.394V833.225H377.969V420.394C377.969 305.925 391.965 201.948 414.761 126.34C417.651 116.755 420.691 107.599 423.872 98.9141C402.516 41.7811 375.359 7.56348 345.807 7.56348L345.002 7.57227ZM427.903 110.18C402.308 184.768 386.007 293.623 385.543 415.061L385.532 420.394V833.225H470.276V420.394C470.276 296.812 453.873 185.858 427.903 110.18ZM509.197 7.57227C479.956 8.18743 453.098 42.3017 431.937 98.917C435.117 107.601 438.158 116.756 441.048 126.34C463.844 201.948 477.84 305.925 477.84 420.394V833.225H542.16V420.394C542.16 305.925 556.156 201.948 578.952 126.34C581.843 116.753 584.883 107.596 588.065 98.9092C566.71 41.7792 539.554 7.56348 510.002 7.56348L509.197 7.57227ZM592.097 110.174C566.5 184.762 550.199 293.619 549.734 415.061L549.724 420.394V833.225H634.472V420.394C634.472 296.809 618.068 185.852 592.097 110.174ZM673.389 7.57227C644.148 8.18741 617.291 42.2997 596.13 98.9121C599.311 107.598 602.353 116.754 605.243 126.34C628.039 201.948 642.035 305.925 642.035 420.394V833.225H706.355V420.394C706.356 305.925 720.351 201.948 743.147 126.34C746.037 116.755 749.078 107.599 752.259 98.9141C730.903 41.7811 703.746 7.56348 674.193 7.56348L673.389 7.57227ZM756.29 110.18C730.694 184.768 714.394 293.623 713.93 415.061L713.919 420.394V833.225H798.663V420.394C798.663 296.812 782.26 185.858 756.29 110.18ZM837.584 7.57227C808.343 8.18743 781.485 42.3017 760.323 98.917C763.504 107.601 766.545 116.756 769.435 126.34C792.231 201.948 806.226 305.925 806.227 420.394V833.225H870.551V420.394C870.551 305.925 884.547 201.948 907.343 126.34C910.233 116.755 913.273 107.599 916.454 98.9141C895.098 41.7811 867.941 7.56348 838.389 7.56348L837.584 7.57227ZM920.485 110.18C894.89 184.768 878.589 293.623 878.125 415.061L878.114 420.394V833.225H962.858V420.394C962.858 296.812 946.455 185.858 920.485 110.18ZM1001.78 7.57227C972.538 8.18743 945.68 42.3017 924.519 98.917C927.699 107.601 930.74 116.756 933.63 126.34C956.426 201.948 970.422 305.925 970.422 420.394V833.225H1034.75V420.394C1034.75 305.925 1048.74 201.948 1071.54 126.34C1074.43 116.755 1077.47 107.599 1080.65 98.9141C1059.29 41.7811 1032.14 7.56348 1002.58 7.56348L1001.78 7.57227ZM1084.68 110.18C1059.08 184.768 1042.78 293.623 1042.32 415.061L1042.31 420.394V833.225H1127.05V420.394C1127.05 296.812 1110.65 185.858 1084.68 110.18ZM1165.97 7.57227C1136.73 8.18743 1109.88 42.3017 1088.71 98.917C1091.89 107.601 1094.94 116.756 1097.83 126.34C1120.62 201.948 1134.62 305.925 1134.62 420.394V833.225H1198.94V420.394C1198.94 305.925 1212.93 201.948 1235.73 126.34C1238.62 116.753 1241.66 107.596 1244.84 98.9092C1223.49 41.7792 1196.33 7.56348 1166.78 7.56348L1165.97 7.57227ZM1248.87 110.174C1223.28 184.762 1206.98 293.619 1206.51 415.061L1206.5 420.394V833.225H1291.25V420.394C1291.25 296.809 1274.85 185.852 1248.87 110.174ZM1330.17 7.57227C1300.93 8.18741 1274.07 42.2997 1252.91 98.9121C1256.09 107.598 1259.13 116.754 1262.02 126.34C1284.82 201.948 1298.81 305.925 1298.81 420.394V833.225H1363.13V420.394C1363.13 305.925 1377.13 201.948 1399.92 126.34C1402.81 116.755 1405.85 107.599 1409.04 98.9141C1387.68 41.7811 1360.52 7.56348 1330.97 7.56348L1330.17 7.57227ZM1413.07 110.18C1387.47 184.768 1371.17 293.623 1370.71 415.061L1370.7 420.394V833.225H1455.44V420.394C1455.44 296.812 1439.04 185.858 1413.07 110.18ZM1494.36 7.57227C1465.12 8.18743 1438.26 42.3017 1417.1 98.917C1420.28 107.601 1423.32 116.756 1426.21 126.34C1449.01 201.948 1463 305.925 1463 420.394V833.225H1527.32V420.394C1527.32 305.925 1541.32 201.948 1564.12 126.34C1567.01 116.753 1570.05 107.596 1573.23 98.9092C1551.87 41.7792 1524.72 7.56348 1495.17 7.56348L1494.36 7.57227ZM1577.26 110.174C1551.66 184.762 1535.36 293.619 1534.9 415.061L1534.89 420.394V833.225H1619.64V420.394C1619.64 296.809 1603.23 185.852 1577.26 110.174ZM1741.45 110.18C1715.86 184.768 1699.56 293.623 1699.09 415.061L1699.08 420.394V833.225H1783.83V420.394C1783.83 296.812 1767.42 185.858 1741.45 110.18ZM1658.55 7.57227C1629.31 8.18741 1602.46 42.2997 1581.29 98.9121C1584.48 107.598 1587.52 116.754 1590.41 126.34C1613.2 201.948 1627.2 305.925 1627.2 420.394V833.225H1691.52V420.394C1691.52 305.925 1705.52 201.948 1728.31 126.34C1731.2 116.755 1734.24 107.599 1737.42 98.9141C1716.07 41.7811 1688.91 7.56348 1659.36 7.56348L1658.55 7.57227ZM1955.59 840.788H-443V420.394C-443 305.925 -429.004 201.948 -406.208 126.34C-394.824 88.5837 -381.12 57.4731 -365.561 35.6338C-350.138 13.9865 -331.796 7.67151e-05 -310.967 0C-290.138 0 -271.795 13.9864 -256.372 35.6338C-246.401 49.6301 -237.194 67.4356 -228.869 88.3564C-220.544 67.4355 -211.337 49.6301 -201.365 35.6338C-185.943 13.9865 -167.601 7.67151e-05 -146.771 0C-125.942 0 -107.599 13.9864 -92.1768 35.6338C-82.2061 49.629 -73.0003 67.4328 -64.6758 88.3516C-56.351 67.4328 -47.1446 49.629 -37.1738 35.6338C-21.7513 13.9865 -3.40924 7.67151e-05 17.4199 0C38.2492 0 56.5921 13.9864 72.0146 35.6338C81.9861 49.6301 91.1926 67.4356 99.5176 88.3564C107.843 67.4355 117.05 49.6301 127.021 35.6338C142.444 13.9865 160.786 7.67151e-05 181.615 0C202.445 0 220.787 13.9864 236.21 35.6338C246.181 49.629 255.386 67.4328 263.711 88.3516C272.036 67.4328 281.242 49.629 291.213 35.6338C306.635 13.9865 324.977 7.67151e-05 345.807 0C366.636 0 384.979 13.9864 400.401 35.6338C410.373 49.6301 419.579 67.4356 427.904 88.3564C436.23 67.4355 445.437 49.6301 455.408 35.6338C470.831 13.9865 489.173 7.67151e-05 510.002 0C530.831 0 549.174 13.9864 564.597 35.6338C574.567 49.629 583.773 67.4328 592.098 88.3516C600.422 67.4328 609.629 49.629 619.6 35.6338C635.022 13.9865 653.364 7.67151e-05 674.193 0C695.023 0 713.366 13.9864 728.788 35.6338C738.76 49.6301 747.966 67.4356 756.291 88.3564C764.616 67.4355 773.823 49.6301 783.795 35.6338C799.217 13.9865 817.559 7.67151e-05 838.389 0C859.218 0 877.561 13.9864 892.983 35.6338C902.955 49.6301 912.161 67.4356 920.486 88.3564C928.812 67.4355 938.019 49.6301 947.99 35.6338C963.413 13.9865 981.755 7.67151e-05 1002.58 0C1023.41 0 1041.76 13.9864 1057.18 35.6338C1067.15 49.6301 1076.36 67.4356 1084.68 88.3564C1093.01 67.4355 1102.21 49.6301 1112.19 35.6338C1127.61 13.9865 1145.95 7.67151e-05 1166.78 0C1187.61 0 1205.95 13.9864 1221.37 35.6338C1231.34 49.629 1240.55 67.4328 1248.88 88.3516C1257.2 67.4328 1266.41 49.629 1276.38 35.6338C1291.8 13.9865 1310.14 7.67151e-05 1330.97 0C1351.8 0 1370.14 13.9864 1385.57 35.6338C1395.54 49.6301 1404.74 67.4356 1413.07 88.3564C1421.39 67.4355 1430.6 49.6301 1440.57 35.6338C1455.99 13.9865 1474.34 7.67151e-05 1495.17 0C1516 0 1534.34 13.9864 1549.76 35.6338C1559.73 49.629 1568.94 67.4328 1577.26 88.3516C1585.59 67.4328 1594.79 49.629 1604.76 35.6338C1620.19 13.9865 1638.53 7.67151e-05 1659.36 0C1680.19 0 1698.53 13.9864 1713.95 35.6338C1723.92 49.6301 1733.13 67.4356 1741.46 88.3564C1749.78 67.4355 1758.99 49.6301 1768.96 35.6338C1784.38 13.9865 1802.72 7.67151e-05 1823.55 0C1844.38 0 1862.72 13.9864 1878.15 35.6338C1893.71 57.4731 1907.41 88.5838 1918.79 126.34C1941.59 201.948 1955.59 305.925 1955.59 420.394V840.788Z" fill="url(#paint0_linear_505_179)"/>
</g>
<defs>
<linearGradient id="paint0_linear_505_179" x1="756.292" y1="786.791" x2="756.292" y2="0.347961" gradientUnits="userSpaceOnUse">
<stop stop-color="white" stop-opacity="0.01"/>
<stop offset="1" stop-color="#F0F0F0" stop-opacity="0.5"/>
</linearGradient>
</defs>
</svg>
